<svg xmlns="http://www.w3.org/2000/svg" viewBox="0 0 1200 800"><defs><linearGradient id="sky" x2="0" y2="1"><stop stop-color="#8fc4e7"/><stop offset="1" stop-color="#eef4f7"/></linearGradient><linearGradient id="sea" x2="0" y2="1"><stop stop-color="#5a91ae"/><stop offset="1" stop-color="#21475f"/></linearGradient></defs><rect width="1200" height="800" fill="url(#sky)"/><path d="M0 440 L140 240 250 370 370 180 520 410 650 150 820 400 945 210 1200 430 V560 H0Z" fill="#465c66"/><path d="M0 480 L140 310 250 420 370 260 520 460 650 245 820 450 945 300 1200 470 V560 H0Z" fill="#6f8587"/><rect y="520" width="1200" height="280" fill="url(#sea)"/><g transform="translate(730 470)"><rect x="0" y="70" width="130" height="95" fill="#ad3c32"/><polygon points="0,70 65,20 130,70" fill="#6e2c2c"/><rect x="150" y="85" width="120" height="80" fill="#d9d8cf"/><polygon points="150,85 210,38 270,85" fill="#76736c"/><rect x="292" y="68" width="125" height="97" fill="#b24637"/><polygon points="292,68 355,18 417,68" fill="#6b2926"/></g><text x="70" y="105" font-family="Arial" font-size="64" fill="#16384c" font-weight="700">LOFOTEN · REINE</text></svg>